<svg viewBox="0 0 160 54" fill="none" xmlns="http://www.w3.org/2000/svg">
<g clip-path="url(#clip0_480_12466)">
<g filter="url(#filter0_d_480_12466)">
<path d="M84.4177 33.5677C79.4473 33.3111 76 33 76 33V34.3913C78.4506 34.7391 81.0465 34.7585 83.0886 34.8551C85.1307 34.9517 89.7342 34.971 89.7342 34.971C89.7342 34.971 129.988 35.087 134.481 34.8551C138.974 34.6232 140.241 34.2631 140.241 34.2631L146 33C146 33 144.576 33.142 142.127 33.2839C139.662 33.4267 139.53 33.4258 135.522 33.5677C131.514 33.7096 88.9104 33.7995 84.4177 33.5677Z" fill="#FF6B4A"/>
</g>
<g filter="url(#filter1_d_480_12466)">
<path d="M22.82 39.64C32.1094 39.64 39.64 32.1094 39.64 22.82C39.64 13.5306 32.1094 6 22.82 6C13.5306 6 6 13.5306 6 22.82C6 26.6706 7.29394 30.2191 9.47074 33.0542L7.6882 39.3818L13.9471 37.112C16.5227 38.7144 19.5633 39.64 22.82 39.64Z" fill="white"/>
<path d="M9.59106 33.0881L9.60805 33.0278L9.56989 32.9781C7.40927 30.164 6.125 26.6422 6.125 22.82C6.125 13.5996 13.5996 6.125 22.82 6.125C32.0404 6.125 39.515 13.5996 39.515 22.82C39.515 32.0404 32.0404 39.515 22.82 39.515C19.5873 39.515 16.5695 38.5963 14.0131 37.0058L13.9616 36.9738L13.9045 36.9945L7.87456 39.1812L9.59106 33.0881Z" stroke="#464FA7" stroke-width="0.25"/>
</g>
<path d="M16.1017 29.858H15.3826L12.8558 21.7724C12.7392 21.4096 12.6291 21.1181 12.5254 20.8978C12.4218 20.6775 12.2987 20.5026 12.1561 20.373C12.0136 20.2434 11.8452 20.1592 11.6508 20.1203C11.4564 20.0685 11.2167 20.0426 10.9316 20.0426V19.3623H16.0823V20.0426C15.577 20.0426 15.2206 20.1009 15.0133 20.2175C14.806 20.3341 14.7023 20.535 14.7023 20.82C14.7023 20.9496 14.7217 21.1051 14.7606 21.2865C14.7995 21.455 14.8513 21.6688 14.9161 21.9279L16.2378 26.5732H16.3155L19.1727 19.3623H19.7752L22.3603 26.5732H22.438L23.6042 23.4245C23.7597 22.9969 23.8893 22.6406 23.9929 22.3555C24.0966 22.0575 24.1743 21.8113 24.2262 21.6169C24.291 21.4096 24.3363 21.2412 24.3622 21.1116C24.3881 20.982 24.4011 20.8589 24.4011 20.7423C24.4011 20.4572 24.3169 20.2693 24.1484 20.1786C23.98 20.0879 23.6301 20.0426 23.0989 20.0426V19.3623H26.9861V20.0426C26.7918 20.0426 26.6233 20.075 26.4808 20.1398C26.3512 20.1916 26.2152 20.3017 26.0726 20.4702C25.9431 20.6386 25.807 20.8783 25.6645 21.1893C25.5219 21.5003 25.347 21.9085 25.1397 22.4138L22.127 29.858H21.4079L19.0366 22.6859H18.9589L16.1017 29.858Z" fill="#4444CF"/>
<path d="M31.6807 26.5735C31.6807 27.0789 31.7001 27.487 31.739 27.798C31.7908 28.096 31.8815 28.3358 32.0111 28.5172C32.1407 28.6856 32.3221 28.8022 32.5553 28.867C32.7885 28.9318 33.0995 28.9707 33.4882 28.9836V29.6639H27.91V28.9836C28.2987 28.9707 28.6162 28.9318 28.8624 28.867C29.1086 28.7893 29.2965 28.6727 29.426 28.5172C29.5686 28.3487 29.6593 28.122 29.6981 27.8369C29.75 27.5389 29.7759 27.1631 29.7759 26.7096V24.2217C29.7759 23.4702 29.7629 22.8547 29.737 22.3753C29.7241 21.8829 29.6917 21.546 29.6398 21.3646C29.575 21.0665 29.426 20.8657 29.1928 20.762C28.9596 20.6454 28.519 20.5871 27.8711 20.5871V19.9068L31.6807 19.1682V26.5735ZM29.4455 15.2226C29.4455 14.8857 29.5621 14.6007 29.7953 14.3674C30.0286 14.1342 30.3136 14.0176 30.6505 14.0176C30.9874 14.0176 31.2725 14.1342 31.5057 14.3674C31.739 14.6007 31.8556 14.8857 31.8556 15.2226C31.8556 15.5595 31.739 15.8446 31.5057 16.0778C31.2725 16.3111 30.9874 16.4277 30.6505 16.4277C30.3136 16.4277 30.0286 16.3111 29.7953 16.0778C29.5621 15.8446 29.4455 15.5595 29.4455 15.2226Z" fill="#4444CF"/>
<path d="M61.0127 28.2816L63.8207 20.4696C63.9887 20.0016 64.1087 19.6296 64.1807 19.3536C64.2527 19.0776 64.2887 18.8376 64.2887 18.6336C64.2887 18.3216 64.1867 18.1116 63.9827 18.0036C63.7907 17.8836 63.4427 17.8236 62.9387 17.8236V17.1396H67.3127V17.8236C66.7607 17.8236 66.3407 17.9376 66.0527 18.1656C65.7767 18.3936 65.5427 18.7656 65.3507 19.2816L60.8327 31.1796H60.2027L56.7467 20.9376L52.9127 31.1796H52.2827L48.5387 20.8476C48.3227 20.2716 48.1247 19.7916 47.9447 19.4076C47.7767 19.0116 47.5907 18.6996 47.3867 18.4716C47.1947 18.2436 46.9727 18.0816 46.7207 17.9856C46.4687 17.8896 46.1627 17.8416 45.8027 17.8416V17.1396H51.6707V17.8416C51.0587 17.8416 50.6267 17.8956 50.3747 18.0036C50.1347 18.1116 50.0147 18.3216 50.0147 18.6336C50.0147 18.7896 50.0387 18.9696 50.0867 19.1736C50.1347 19.3776 50.2067 19.6176 50.3027 19.8936L53.0387 28.2276L55.2527 21.9996C55.4207 21.5316 55.5827 21.0996 55.7387 20.7036C55.9067 20.2956 56.0387 19.9296 56.1347 19.6056C55.9667 19.2576 55.8107 18.9696 55.6667 18.7416C55.5347 18.5136 55.3967 18.3336 55.2527 18.2016C55.1207 18.0696 54.9767 17.9796 54.8207 17.9316C54.6767 17.8716 54.5207 17.8416 54.3527 17.8416V17.1396H59.8607V17.8416C59.5127 17.8416 59.2307 17.8536 59.0147 17.8776C58.7987 17.9016 58.6307 17.9436 58.5107 18.0036C58.4027 18.0516 58.3247 18.1236 58.2767 18.2196C58.2407 18.3156 58.2227 18.4296 58.2227 18.5616C58.2227 18.7416 58.2527 18.9636 58.3127 19.2276C58.3847 19.4796 58.4807 19.8036 58.6007 20.1996L61.0127 28.2816Z" fill="black"/>
<path d="M75.1722 29.3263C74.1522 30.5623 72.8862 31.1803 71.3742 31.1803C70.6662 31.1803 70.0242 31.0663 69.4482 30.8383C68.8722 30.5983 68.3742 30.2683 67.9542 29.8483C67.5462 29.4163 67.2282 28.9063 67.0002 28.3183C66.7722 27.7183 66.6582 27.0583 66.6582 26.3383C66.6582 25.6063 66.7782 24.9283 67.0182 24.3043C67.2582 23.6803 67.5942 23.1463 68.0262 22.7023C68.4702 22.2583 68.9922 21.9103 69.5922 21.6583C70.2042 21.4063 70.8702 21.2803 71.5902 21.2803C72.7542 21.2803 73.6542 21.5983 74.2902 22.2343C74.9262 22.8583 75.2442 23.7583 75.2442 24.9343C75.2442 25.1023 75.2082 25.2043 75.1362 25.2403C75.0762 25.2763 74.9262 25.2943 74.6862 25.2943H68.7642C68.7402 25.3903 68.7222 25.5103 68.7102 25.6543C68.6982 25.7863 68.6922 25.9363 68.6922 26.1043C68.6922 26.7283 68.7642 27.2983 68.9082 27.8143C69.0642 28.3183 69.2802 28.7503 69.5562 29.1103C69.8442 29.4703 70.1802 29.7523 70.5642 29.9563C70.9602 30.1483 71.3982 30.2443 71.8782 30.2443C72.3822 30.2443 72.8502 30.1363 73.2822 29.9203C73.7142 29.6923 74.1582 29.3263 74.6142 28.8223L75.1722 29.3263ZM72.2022 24.4663C72.4422 24.4663 72.6342 24.4603 72.7782 24.4483C72.9222 24.4363 73.0302 24.4123 73.1022 24.3763C73.1742 24.3403 73.2222 24.2923 73.2462 24.2323C73.2702 24.1603 73.2822 24.0703 73.2822 23.9623C73.2822 23.4103 73.1022 22.9723 72.7422 22.6483C72.3942 22.3123 71.9142 22.1443 71.3022 22.1443C70.0062 22.1443 69.2022 22.9183 68.8902 24.4663H72.2022Z" fill="black"/>
<path d="M80.7743 27.5976C80.7743 28.1976 80.7983 28.6716 80.8463 29.0196C80.8943 29.3676 80.9843 29.6376 81.1163 29.8296C81.2603 30.0216 81.4583 30.1476 81.7103 30.2076C81.9743 30.2676 82.3163 30.3036 82.7363 30.3156V30.9996H76.9043V30.3156C77.3243 30.3036 77.6603 30.2676 77.9123 30.2076C78.1763 30.1356 78.3803 30.0096 78.5243 29.8296C78.6683 29.6496 78.7643 29.3976 78.8123 29.0736C78.8603 28.7376 78.8843 28.2876 78.8843 27.7236V20.4156C78.8843 19.9116 78.8603 19.4976 78.8123 19.1736C78.7763 18.8376 78.6923 18.5736 78.5603 18.3816C78.4403 18.1896 78.2603 18.0576 78.0203 17.9856C77.7803 17.9016 77.4683 17.8476 77.0843 17.8236V17.1396H82.5563V17.8236C82.1723 17.8356 81.8603 17.8836 81.6203 17.9676C81.3923 18.0516 81.2123 18.1956 81.0803 18.3996C80.9603 18.5916 80.8763 18.8616 80.8283 19.2096C80.7923 19.5576 80.7743 20.0016 80.7743 20.5416V27.5976Z" fill="black"/>
<path d="M87.4533 28.1743C87.4533 28.6663 87.4653 29.0563 87.4893 29.3443C87.5133 29.6203 87.5733 29.8363 87.6693 29.9923C87.7773 30.1363 87.9273 30.2323 88.1193 30.2803C88.3233 30.3283 88.5993 30.3643 88.9473 30.3883V31.0003H84.2313V30.3883C84.5673 30.3643 84.8313 30.3283 85.0233 30.2803C85.2273 30.2323 85.3833 30.1363 85.4913 29.9923C85.5993 29.8483 85.6653 29.6443 85.6893 29.3803C85.7253 29.1163 85.7433 28.7563 85.7433 28.3003V25.9063C85.7433 24.4783 85.7073 23.6083 85.6353 23.2963C85.5993 23.1403 85.5513 23.0143 85.4913 22.9183C85.4433 22.8103 85.3653 22.7323 85.2573 22.6843C85.1493 22.6243 85.0113 22.5883 84.8433 22.5763C84.6753 22.5523 84.4593 22.5403 84.1953 22.5403V21.9643L87.0753 21.2803L87.2913 23.0623H87.3633C87.8193 22.4983 88.3533 22.0603 88.9653 21.7483C89.5773 21.4363 90.2433 21.2803 90.9633 21.2803C91.5153 21.2803 92.0193 21.3703 92.4753 21.5503C92.9313 21.7303 93.2793 21.9763 93.5193 22.2883C93.7233 22.5643 93.8673 22.9243 93.9513 23.3683C94.0353 23.8003 94.0773 24.4003 94.0773 25.1683V28.1743C94.0773 28.6663 94.0893 29.0563 94.1133 29.3443C94.1493 29.6203 94.2153 29.8363 94.3113 29.9923C94.4073 30.1363 94.5513 30.2323 94.7433 30.2803C94.9473 30.3283 95.2113 30.3643 95.5353 30.3883V31.0003H90.8733V30.3883C91.2093 30.3763 91.4733 30.3463 91.6653 30.2983C91.8693 30.2383 92.0193 30.1363 92.1153 29.9923C92.2233 29.8483 92.2893 29.6443 92.3133 29.3803C92.3493 29.1043 92.3673 28.7443 92.3673 28.3003V25.9243C92.3673 25.2403 92.3313 24.6643 92.2593 24.1963C92.1873 23.7283 92.0673 23.3503 91.8993 23.0623C91.7433 22.7743 91.5333 22.5703 91.2693 22.4503C91.0053 22.3183 90.6873 22.2523 90.3153 22.2523C89.7753 22.2523 89.2773 22.3963 88.8213 22.6843C88.3773 22.9603 88.0293 23.3443 87.7773 23.8363C87.7173 23.9563 87.6633 24.0703 87.6153 24.1783C87.5793 24.2863 87.5493 24.4123 87.5253 24.5563C87.5013 24.7003 87.4833 24.8683 87.4713 25.0603C87.4593 25.2403 87.4533 25.4743 87.4533 25.7623V28.1743Z" fill="black"/>
<path d="M96.3711 21.7485H98.4051V20.4525C98.4051 19.0725 98.7651 17.9985 99.4851 17.2305C100.217 16.4505 101.255 16.0605 102.599 16.0605C103.343 16.0605 103.949 16.1745 104.417 16.4025C104.885 16.6305 105.119 16.9245 105.119 17.2845C105.119 17.5245 105.041 17.7285 104.885 17.8965C104.741 18.0525 104.555 18.1305 104.327 18.1305C104.183 18.1305 104.027 18.0885 103.859 18.0045C103.703 17.9085 103.493 17.7525 103.229 17.5365C102.929 17.2845 102.695 17.1225 102.527 17.0505C102.359 16.9665 102.161 16.9245 101.933 16.9245C101.213 16.9245 100.697 17.2905 100.385 18.0225C100.277 18.2625 100.199 18.5565 100.151 18.9045C100.115 19.2525 100.097 19.7325 100.097 20.3445V21.7485H102.995V22.5945H100.097V28.1025C100.097 28.5465 100.121 28.9125 100.169 29.2005C100.229 29.4885 100.325 29.7225 100.457 29.9025C100.601 30.0705 100.793 30.1905 101.033 30.2625C101.273 30.3225 101.585 30.3585 101.969 30.3705V31.0005H96.8571V30.3705C97.1931 30.3585 97.4631 30.3285 97.6671 30.2805C97.8711 30.2205 98.0271 30.1185 98.1351 29.9745C98.2431 29.8185 98.3151 29.6085 98.3511 29.3445C98.3871 29.0685 98.4051 28.7025 98.4051 28.2465V22.5945H96.3711V21.7485Z" fill="black"/>
<path d="M109.033 21.2803C109.717 21.2803 110.365 21.4063 110.977 21.6583C111.589 21.8983 112.123 22.2343 112.579 22.6663C113.047 23.0983 113.413 23.6143 113.677 24.2143C113.953 24.8023 114.091 25.4503 114.091 26.1583C114.091 26.8903 113.953 27.5623 113.677 28.1743C113.413 28.7863 113.047 29.3143 112.579 29.7583C112.123 30.2023 111.589 30.5503 110.977 30.8023C110.365 31.0543 109.717 31.1803 109.033 31.1803C108.361 31.1803 107.719 31.0603 107.107 30.8203C106.507 30.5683 105.979 30.2203 105.523 29.7763C105.067 29.3323 104.707 28.8043 104.443 28.1923C104.179 27.5683 104.047 26.8903 104.047 26.1583C104.047 25.4503 104.179 24.7963 104.443 24.1963C104.707 23.5963 105.067 23.0803 105.523 22.6483C105.979 22.2163 106.507 21.8803 107.107 21.6403C107.719 21.4003 108.361 21.2803 109.033 21.2803ZM109.033 22.1443C108.589 22.1443 108.181 22.2403 107.809 22.4323C107.449 22.6243 107.137 22.9003 106.873 23.2603C106.621 23.6083 106.423 24.0343 106.279 24.5383C106.147 25.0303 106.081 25.5763 106.081 26.1763C106.081 26.8003 106.147 27.3643 106.279 27.8683C106.423 28.3723 106.621 28.8043 106.873 29.1643C107.137 29.5123 107.449 29.7823 107.809 29.9743C108.169 30.1663 108.577 30.2623 109.033 30.2623C109.489 30.2623 109.903 30.1663 110.275 29.9743C110.647 29.7823 110.965 29.5063 111.229 29.1463C111.493 28.7863 111.697 28.3543 111.841 27.8503C111.985 27.3463 112.057 26.7883 112.057 26.1763C112.057 25.5763 111.985 25.0303 111.841 24.5383C111.697 24.0463 111.493 23.6263 111.229 23.2783C110.965 22.9183 110.647 22.6423 110.275 22.4503C109.903 22.2463 109.489 22.1443 109.033 22.1443Z" fill="black"/>
<path d="M118.955 28.1383C118.955 28.6303 118.967 29.0203 118.991 29.3083C119.015 29.5963 119.075 29.8183 119.171 29.9743C119.279 30.1183 119.429 30.2143 119.621 30.2623C119.813 30.3103 120.083 30.3463 120.431 30.3703V31.0003H115.643V30.3703C115.991 30.3583 116.267 30.3283 116.471 30.2803C116.675 30.2203 116.831 30.1183 116.939 29.9743C117.047 29.8303 117.113 29.6263 117.137 29.3623C117.173 29.0863 117.191 28.7203 117.191 28.2643V26.1583C117.191 25.3423 117.179 24.7063 117.155 24.2503C117.143 23.7943 117.083 23.4583 116.975 23.2423C116.879 23.0263 116.723 22.9003 116.507 22.8643C116.291 22.8163 115.991 22.7923 115.607 22.7923V22.1623L118.757 21.4783L119.009 23.7103H119.081C119.237 23.3503 119.429 23.0203 119.657 22.7203C119.897 22.4203 120.155 22.1683 120.431 21.9643C120.707 21.7483 120.995 21.5803 121.295 21.4603C121.595 21.3403 121.901 21.2803 122.213 21.2803C122.597 21.2803 122.897 21.3763 123.113 21.5683C123.341 21.7483 123.455 21.9943 123.455 22.3063C123.455 22.5943 123.365 22.8223 123.185 22.9903C123.005 23.1463 122.747 23.2243 122.411 23.2243C122.219 23.2243 122.057 23.2003 121.925 23.1523C121.793 23.1043 121.673 23.0563 121.565 23.0083C121.469 22.9483 121.373 22.8943 121.277 22.8463C121.193 22.7983 121.097 22.7743 120.989 22.7743C120.665 22.7743 120.341 22.9843 120.017 23.4043C119.693 23.8123 119.441 24.3343 119.261 24.9703C119.165 25.3183 119.087 25.7143 119.027 26.1583C118.979 26.5903 118.955 27.0463 118.955 27.5263V28.1383Z" fill="black"/>
<path d="M127.516 28.1203C127.516 28.6243 127.528 29.0203 127.552 29.3083C127.576 29.5963 127.636 29.8183 127.732 29.9743C127.84 30.1183 127.99 30.2143 128.182 30.2623C128.374 30.3103 128.644 30.3463 128.992 30.3703V31.0003H124.204V30.3703C124.552 30.3463 124.828 30.3103 125.032 30.2623C125.236 30.2143 125.392 30.1183 125.5 29.9743C125.608 29.8303 125.674 29.6263 125.698 29.3623C125.734 29.0863 125.752 28.7203 125.752 28.2643V25.9603C125.752 25.2763 125.74 24.7063 125.716 24.2503C125.704 23.7943 125.674 23.4823 125.626 23.3143C125.59 23.1583 125.548 23.0383 125.5 22.9543C125.452 22.8583 125.374 22.7863 125.266 22.7383C125.158 22.6783 125.014 22.6423 124.834 22.6303C124.666 22.6063 124.444 22.5943 124.168 22.5943V21.9643L127.102 21.2803L127.336 23.0803H127.426C127.966 22.4683 128.53 22.0183 129.118 21.7303C129.718 21.4303 130.378 21.2803 131.098 21.2803C131.854 21.2803 132.49 21.4363 133.006 21.7483C133.522 22.0483 133.882 22.4863 134.086 23.0623H134.158C134.602 22.4983 135.142 22.0603 135.778 21.7483C136.414 21.4363 137.092 21.2803 137.812 21.2803C138.376 21.2803 138.886 21.3763 139.342 21.5683C139.81 21.7483 140.164 22.0003 140.404 22.3243C140.62 22.6003 140.77 22.9663 140.854 23.4223C140.95 23.8663 140.998 24.4783 140.998 25.2583V28.1203C140.998 28.6123 141.01 29.0023 141.034 29.2903C141.07 29.5783 141.136 29.8003 141.232 29.9563C141.328 30.1123 141.472 30.2143 141.664 30.2623C141.868 30.3103 142.144 30.3463 142.492 30.3703V31.0003H137.704V30.3703C138.04 30.3583 138.31 30.3283 138.514 30.2803C138.718 30.2203 138.874 30.1183 138.982 29.9743C139.09 29.8183 139.156 29.6083 139.18 29.3443C139.216 29.0803 139.234 28.7203 139.234 28.2643V25.9963C139.234 25.3123 139.198 24.7363 139.126 24.2683C139.054 23.7883 138.934 23.4043 138.766 23.1163C138.598 22.8163 138.376 22.6003 138.1 22.4683C137.836 22.3363 137.512 22.2703 137.128 22.2703C136.6 22.2703 136.102 22.4203 135.634 22.7203C135.178 23.0083 134.818 23.3983 134.554 23.8903C134.494 24.0103 134.44 24.1303 134.392 24.2503C134.356 24.3583 134.326 24.4843 134.302 24.6283C134.278 24.7603 134.26 24.9223 134.248 25.1143C134.248 25.3063 134.248 25.5463 134.248 25.8343V28.1203C134.248 28.6123 134.26 29.0023 134.284 29.2903C134.308 29.5783 134.368 29.8003 134.464 29.9563C134.572 30.1123 134.728 30.2143 134.932 30.2623C135.136 30.3103 135.412 30.3463 135.76 30.3703V31.0003H130.972V30.3703C131.308 30.3463 131.578 30.3103 131.782 30.2623C131.986 30.2143 132.136 30.1183 132.232 29.9743C132.34 29.8303 132.406 29.6263 132.43 29.3623C132.466 29.0863 132.484 28.7203 132.484 28.2643V25.9963C132.484 25.3003 132.448 24.7183 132.376 24.2503C132.304 23.7703 132.184 23.3863 132.016 23.0983C131.86 22.7983 131.65 22.5883 131.386 22.4683C131.122 22.3363 130.798 22.2703 130.414 22.2703C129.874 22.2703 129.364 22.4203 128.884 22.7203C128.416 23.0083 128.062 23.3983 127.822 23.8903C127.762 24.0103 127.708 24.1303 127.66 24.2503C127.624 24.3583 127.594 24.4843 127.57 24.6283C127.546 24.7603 127.528 24.9223 127.516 25.1143C127.516 25.3063 127.516 25.5463 127.516 25.8343V28.1203Z" fill="black"/>
</g>
<defs>
<filter id="filter0_d_480_12466" x="70" y="27" width="90" height="22" filterUnits="userSpaceOnUse" color-interpolation-filters="sRGB">
<feFlood flood-opacity="0" result="BackgroundImageFix"/>
<feColorMatrix in="SourceAlpha" type="matrix" values="0 0 0 0 0 0 0 0 0 0 0 0 0 0 0 0 0 0 127 0" result="hardAlpha"/>
<feOffset dx="4" dy="4"/>
<feGaussianBlur stdDeviation="5"/>
<feComposite in2="hardAlpha" operator="out"/>
<feColorMatrix type="matrix" values="0 0 0 0 0 0 0 0 0 0 0 0 0 0 0 0 0 0 0.25 0"/>
<feBlend mode="normal" in2="BackgroundImageFix" result="effect1_dropShadow_480_12466"/>
<feBlend mode="normal" in="SourceGraphic" in2="effect1_dropShadow_480_12466" result="shape"/>
</filter>
<filter id="filter1_d_480_12466" x="0" y="0" width="53.6406" height="53.6396" filterUnits="userSpaceOnUse" color-interpolation-filters="sRGB">
<feFlood flood-opacity="0" result="BackgroundImageFix"/>
<feColorMatrix in="SourceAlpha" type="matrix" values="0 0 0 0 0 0 0 0 0 0 0 0 0 0 0 0 0 0 127 0" result="hardAlpha"/>
<feOffset dx="4" dy="4"/>
<feGaussianBlur stdDeviation="5"/>
<feColorMatrix type="matrix" values="0 0 0 0 0.27451 0 0 0 0 0.309804 0 0 0 0 0.654902 0 0 0 0.45 0"/>
<feBlend mode="normal" in2="BackgroundImageFix" result="effect1_dropShadow_480_12466"/>
<feBlend mode="normal" in="SourceGraphic" in2="effect1_dropShadow_480_12466" result="shape"/>
</filter>
<clipPath id="clip0_480_12466">
<rect width="160" height="54" fill="white"/>
</clipPath>
</defs>
</svg>
