<svg viewBox="0 0 22 25" fill="none" xmlns="http://www.w3.org/2000/svg">
<path d="M11 16.0232C11.9685 16.0232 12.7536 15.2313 12.7536 14.2544C12.7536 13.2775 11.9685 12.4856 11 12.4856C10.0315 12.4856 9.24637 13.2775 9.24637 14.2544C9.24637 15.2313 10.0315 16.0232 11 16.0232Z" fill="#4444CF"/>
<path fill-rule="evenodd" clip-rule="evenodd" d="M11 0.422852L22 6.89516V22.7006H12.1892C11.9649 23.0372 11.7608 23.3369 11.5874 23.5881C11.2273 24.11 11 24.4229 11 24.4229C11 24.4229 10.7727 24.11 10.4126 23.5881C10.2392 23.3369 10.0351 23.0372 9.81075 22.7006H0V6.89516L11 0.422852ZM21.0435 21.7241H12.8279C14.347 19.3552 16.2609 16.0198 16.2609 14.2521C16.2609 11.3214 13.9055 8.94559 11 8.94559C8.0945 8.94559 5.73913 11.3214 5.73913 14.2521C5.73913 16.0198 7.65304 19.3552 9.17208 21.7241H0.956522V7.45946L11 1.54997L21.0435 7.45946V21.7241ZM14.5704 16.6684C15.0585 15.5888 15.3043 14.755 15.3043 14.2521C15.3043 11.8718 13.3882 9.92213 11 9.92213C8.61185 9.92213 6.69565 11.8718 6.69565 14.2521C6.69565 14.755 6.94152 15.5888 7.42961 16.6684C7.90017 17.7092 8.53582 18.8518 9.18362 19.9237C9.82941 20.9923 10.4768 21.9735 10.9635 22.6885L11 22.7421L11.0365 22.6885C11.5232 21.9735 12.1706 20.9923 12.8164 19.9237C13.4642 18.8518 14.0998 17.7092 14.5704 16.6684Z" fill="#4444CF"/>
</svg>
