<svg viewBox="0 0 19 24" fill="none" xmlns="http://www.w3.org/2000/svg">
<path d="M2.66665 14.9046C2.66665 14.668 2.85852 14.4761 3.09521 14.4761H12.9047C13.1414 14.4761 13.3332 14.668 13.3332 14.9046C13.3332 15.1413 13.1414 15.3332 12.9047 15.3332H3.09521C2.85852 15.3332 2.66665 15.1413 2.66665 14.9046Z" fill="#4444CF"/>
<path d="M3.09503 17.1429C2.85834 17.1429 2.66646 17.3348 2.66646 17.5715C2.66646 17.8082 2.85834 18 3.09503 18H12.9045C13.1412 18 13.333 17.8082 13.333 17.5715C13.333 17.3348 13.1412 17.1429 12.9045 17.1429H3.09503Z" fill="#4444CF"/>
<path d="M2.66646 20.2381C2.66646 20.0014 2.85834 19.8096 3.09503 19.8096H12.9045C13.1412 19.8096 13.333 20.0014 13.333 20.2381C13.333 20.4748 13.1412 20.6667 12.9045 20.6667H3.09503C2.85834 20.6667 2.66646 20.4748 2.66646 20.2381Z" fill="#4444CF"/>
<path d="M8.0005 12.6666C8.0005 12.2984 8.29897 11.9999 8.66716 11.9999H11.3338C11.702 11.9999 12.0005 12.2984 12.0005 12.6666H8.0005Z" fill="#4444CF"/>
<path d="M5.88821 5.6642L9.18734 7.56895L8.18735 9.30099L7.03223 8.63408L5.03227 12.0981C4.84817 12.417 4.44045 12.5262 4.12159 12.3421C3.80273 12.158 3.69348 11.7503 3.87757 11.4315L5.87754 7.96742L4.88822 7.39624L4.76924 7.60231C4.6509 7.80729 4.38879 7.87753 4.18381 7.75918C3.97883 7.64083 3.90859 7.37873 4.02694 7.17375L5.26503 5.02932C5.38337 4.82434 5.64548 4.75411 5.85046 4.87245C6.05544 4.9908 6.12567 5.2529 6.00733 5.45789L5.88821 5.6642Z" fill="#4444CF"/>
<path d="M9.89191 7.20577C10.0969 7.32411 10.1671 7.58622 10.0488 7.7912L8.81069 9.93563C8.69235 10.1406 8.43024 10.2108 8.22526 10.0925C8.02028 9.97415 7.95004 9.71204 8.06839 9.50706L9.30648 7.36263C9.42482 7.15765 9.68693 7.08742 9.89191 7.20577Z" fill="#4444CF"/>
<path fill-rule="evenodd" clip-rule="evenodd" d="M3.52397 0.857136H17.8096L17.8096 20.476H17.3333V2.19055C17.3333 1.71717 16.9495 1.33342 16.4762 1.33342H2.19055C1.71717 1.33342 1.33342 1.71717 1.33342 2.19055V2.66665H2.19055V2.19055H16.4762L16.4762 21.8094H15.9999V3.52397C15.9999 3.05059 15.6161 2.66683 15.1427 2.66683H0.857136C0.383753 2.66683 0 3.05058 0 3.52397V23.1429C0 23.6162 0.383752 24 0.857135 24H15.1427C15.6161 24 15.9999 23.6162 15.9999 23.1429V22.6666H16.4762C16.9495 22.6666 17.3333 22.2828 17.3333 21.8094V21.3332H17.8096C18.283 21.3332 18.6667 20.9494 18.6667 20.476V0.857136C18.6667 0.383753 18.283 0 17.8096 0H3.52397C3.05059 0 2.66683 0.383752 2.66683 0.857135V1.33332H3.52397V0.857136ZM0.857136 3.52397H15.1427L15.1427 23.1429H0.857135L0.857136 3.52397Z" fill="#4444CF"/>
</svg>
