<svg viewBox="0 0 18 24" fill="none" xmlns="http://www.w3.org/2000/svg">
<path d="M9 1.875C9 1.66789 9.16789 1.5 9.375 1.5H11.625C11.8321 1.5 12 1.66789 12 1.875C12 2.08211 11.8321 2.25 11.625 2.25H9.375C9.16789 2.25 9 2.08211 9 1.875Z" fill="#4444CF"/>
<path d="M10.5 22.5C10.9142 22.5 11.25 22.1642 11.25 21.75C11.25 21.3358 10.9142 21 10.5 21C10.0858 21 9.75 21.3358 9.75 21.75C9.75 22.1642 10.0858 22.5 10.5 22.5Z" fill="#4444CF"/>
<path fill-rule="evenodd" clip-rule="evenodd" d="M18 21.75C18 22.9926 16.9926 24 15.75 24H5.25C4.00736 24 3 22.9926 3 21.75V15.75H0.75C0.335787 15.75 0 15.4142 0 15V7.5C0 7.08579 0.335786 6.75 0.75 6.75H3V2.25C3 1.00736 4.00736 0 5.25 0H15.75C16.9926 0 18 1.00736 18 2.25V21.75ZM15.75 0.75H5.25C4.42157 0.75 3.75 1.42157 3.75 2.25V3H17.25V2.25C17.25 1.42157 16.5784 0.75 15.75 0.75ZM3.75 6.75H12.75C13.1642 6.75 13.5 7.08579 13.5 7.5V15C13.5 15.4142 13.1642 15.75 12.75 15.75H3.75V19.5H17.25V3.75H3.75V6.75ZM3.75 21.75V20.25H17.25V21.75C17.25 22.5784 16.5784 23.25 15.75 23.25H5.25C4.42157 23.25 3.75 22.5784 3.75 21.75ZM1.27653 7.5H12.2235L8.5477 11.2293L7.01138 12.723C6.86583 12.8645 6.63411 12.8645 6.48857 12.723L4.95225 11.2293L1.27653 7.5ZM0.75 14.498V8.03421L4.14391 11.4776L0.75 14.498ZM12.1859 15H1.31408L4.6767 12.0075L5.96576 13.2607C6.40239 13.6852 7.09755 13.6852 7.53418 13.2607L8.82325 12.0075L12.1859 15ZM12.75 8.03421V14.498L9.35604 11.4776L12.75 8.03421Z" fill="#4444CF"/>
</svg>
