<svg viewBox="0 0 27 21" fill="none" xmlns="http://www.w3.org/2000/svg">
<path fill-rule="evenodd" clip-rule="evenodd" d="M10.9373 4.30769C10.9373 6.09883 9.82703 7.63464 8.24717 8.28434C9.22468 8.53744 10.1159 9.01187 10.8614 9.6507C10.6813 9.89462 10.5438 10.169 10.4591 10.464C9.44915 9.52697 8.09447 8.95187 6.61337 8.95187C3.46344 8.95187 0.875 11.507 0.875 14.6394V18.375C0.875 19.3414 1.6585 20.125 2.625 20.125H9.02763C9.17248 20.627 9.63332 20.9951 10.1809 21H2.625C1.17525 21 0 19.8247 0 18.375V14.6394C0 11.602 2.09919 9.04662 4.91233 8.29853C3.31393 7.65722 2.18729 6.112 2.18729 4.30769C2.18729 1.92862 4.14604 0 6.56229 0C8.97853 0 10.9373 1.92862 10.9373 4.30769ZM6.56229 7.74039C8.50812 7.74039 10.0623 6.19078 10.0623 4.30769C10.0623 2.42461 8.50812 0.875 6.56229 0.875C4.61645 0.875 3.06229 2.42461 3.06229 4.30769C3.06229 6.19078 4.61645 7.74039 6.56229 7.74039Z" fill="#4444CF"/>
<path fill-rule="evenodd" clip-rule="evenodd" d="M16.0696 21H23.625C25.0747 21 26.25 19.8247 26.25 18.375V14.5384C26.25 11.533 24.1626 9.00686 21.3722 8.28434C22.952 7.63464 24.0623 6.09883 24.0623 4.30769C24.0623 1.92862 22.1035 0 19.6873 0C17.271 0 15.3123 1.92862 15.3123 4.30769C15.3123 6.112 16.4389 7.65722 18.0373 8.29853C17.0564 8.55939 16.1623 9.03999 15.4137 9.68416C14.9167 8.98839 14.0773 8.53125 13.1256 8.53125C11.5995 8.53125 10.3624 9.7065 10.3624 11.1562C10.3624 12.0985 10.885 12.9248 11.6698 13.3878C10.0988 13.9772 8.98071 15.4929 8.98071 17.2697V19.7885C8.98071 20.4576 9.52314 21 10.1923 21H16.0586C16.0623 21 16.0659 21 16.0696 21ZM17.2228 20.125H23.625C24.5915 20.125 25.375 19.3414 25.375 18.375V14.5384C25.375 11.4618 22.8325 8.95187 19.7384 8.95187C18.2212 8.95187 16.8343 9.54463 15.8041 10.5091C15.8594 10.7161 15.8887 10.9329 15.8887 11.1562C15.8887 12.0985 15.3661 12.9248 14.5812 13.3879C16.1522 13.9773 17.2702 15.4929 17.2702 17.2697V19.7885C17.2702 19.9052 17.2537 20.0181 17.2228 20.125ZM23.1873 4.30769C23.1873 6.19078 21.6331 7.74039 19.6873 7.74039C17.7415 7.74039 16.1873 6.19078 16.1873 4.30769C16.1873 2.42461 17.7415 0.875 19.6873 0.875C21.6331 0.875 23.1873 2.42461 23.1873 4.30769ZM13.1256 12.9062C14.2112 12.9062 15.0137 12.081 15.0137 11.1562C15.0137 10.2315 14.2112 9.40625 13.1256 9.40625C12.04 9.40625 11.2374 10.2315 11.2374 11.1562C11.2374 12.081 12.04 12.9062 13.1256 12.9062ZM16.3952 17.2697V19.7885C16.3952 19.9743 16.2445 20.125 16.0586 20.125H10.1923C10.0064 20.125 9.85571 19.9743 9.85571 19.7885V17.2697C9.85571 15.4639 11.3196 14 13.1255 14C14.9313 14 16.3952 15.4639 16.3952 17.2697Z" fill="#4444CF"/>
</svg>
