<svg viewBox="0 0 28 22" fill="none" xmlns="http://www.w3.org/2000/svg">
<path d="M11.0645 15.3709V15.2057C11.0645 14.6534 11.5122 14.2057 12.0645 14.2057H15.9355C16.4878 14.2057 16.9355 14.6534 16.9355 15.2057V15.3709M11.0645 15.3709L2.03965 13.9777M11.0645 15.3709V15.5361C11.0645 16.0884 11.5122 16.5361 12.0645 16.5361H15.9355C16.4878 16.5361 16.9355 16.0884 16.9355 15.5361V15.3709M16.9355 15.3709L26.1613 13.9467M2.03965 13.9777L1.84744 13.9481C1.35984 13.8728 1 13.4532 1 12.9598V3.94201C1 3.38972 1.44772 2.94201 2 2.94201H26C26.5523 2.94201 27 3.38973 27 3.94201V12.9686C27 13.4569 26.6439 13.8722 26.1613 13.9467V13.9467M2.03965 13.9777V19.992C2.03965 20.5474 2.49222 20.9964 3.04759 20.992L25.1692 20.8164C25.7184 20.812 26.1613 20.3656 26.1613 19.8164V14.2057V13.9467M18.1935 2.94201V2C18.1935 1.44772 17.7458 1 17.1935 1H10.8065C10.2542 1 9.80645 1.44772 9.80645 2V2.94201H18.1935Z" stroke="#4444CF"/>
</svg>
