<svg viewBox="0 0 19 24" fill="none" xmlns="http://www.w3.org/2000/svg">
<path fill-rule="evenodd" clip-rule="evenodd" d="M11.4193 21.3602L13.625 18.7587C14.2341 18.1001 14.2326 17.0341 13.6217 16.3775C13.0107 15.721 12.0284 16.0713 11.4193 16.7299C10.8083 16.0734 9.81248 15.7263 9.20338 16.3848C8.59428 17.0434 8.5958 18.1095 9.20677 18.766L11.4193 21.3602ZM13.1709 18.2707L13.1611 18.2813L11.4178 20.3373L9.66934 18.2872L9.65944 18.2766C9.2994 17.8897 9.29835 17.2612 9.65755 16.8729C9.77518 16.7457 9.93978 16.6891 10.1851 16.742C10.444 16.7977 10.736 16.9715 10.9666 17.2193L11.4208 17.7073L11.8735 17.2179C12.1049 16.9677 12.394 16.7938 12.6485 16.7377C12.888 16.6848 13.05 16.7391 13.169 16.8669C13.529 17.2538 13.5301 17.8823 13.1709 18.2707Z" fill="#4444CF"/>
<path d="M2.66667 6.33333C2.66667 6.14924 2.8159 6 3 6H13C13.1841 6 13.3333 6.14924 13.3333 6.33333C13.3333 6.51743 13.1841 6.66667 13 6.66667H3C2.8159 6.66667 2.66667 6.51743 2.66667 6.33333Z" fill="#4444CF"/>
<path d="M3 8.66667C2.8159 8.66667 2.66667 8.81591 2.66667 9C2.66667 9.18409 2.8159 9.33333 3 9.33333H13C13.1841 9.33333 13.3333 9.18409 13.3333 9C13.3333 8.81591 13.1841 8.66667 13 8.66667H3Z" fill="#4444CF"/>
<path d="M2.66667 11.6667C2.66667 11.4826 2.8159 11.3333 3 11.3333H13C13.1841 11.3333 13.3333 11.4826 13.3333 11.6667C13.3333 11.8508 13.1841 12 13 12H3C2.8159 12 2.66667 11.8508 2.66667 11.6667Z" fill="#4444CF"/>
<path d="M3 14C2.8159 14 2.66667 14.1492 2.66667 14.3333C2.66667 14.5174 2.8159 14.6667 3 14.6667H13C13.1841 14.6667 13.3333 14.5174 13.3333 14.3333C13.3333 14.1492 13.1841 14 13 14H3Z" fill="#4444CF"/>
<path d="M2.66667 17C2.66667 16.8159 2.8159 16.6667 3 16.6667H7C7.18409 16.6667 7.33333 16.8159 7.33333 17C7.33333 17.1841 7.18409 17.3333 7 17.3333H3C2.8159 17.3333 2.66667 17.1841 2.66667 17Z" fill="#4444CF"/>
<path d="M3 19.3333C2.8159 19.3333 2.66667 19.4826 2.66667 19.6667C2.66667 19.8508 2.8159 20 3 20H7.66667C7.85076 20 8 19.8508 8 19.6667C8 19.4826 7.85076 19.3333 7.66667 19.3333H3Z" fill="#4444CF"/>
<path fill-rule="evenodd" clip-rule="evenodd" d="M17.3333 21.3333H18C18.3682 21.3333 18.6667 21.0349 18.6667 20.6667V0.666667C18.6667 0.298477 18.3682 0 18 0H3.33333C2.96514 0 2.66667 0.298477 2.66667 0.666667V1.33333H2C1.63181 1.33333 1.33333 1.63181 1.33333 2V2.66667H0.666667C0.298477 2.66667 0 2.96514 0 3.33333V23.3333C0 23.7015 0.298477 24 0.666667 24H15.3333C15.7015 24 16 23.7015 16 23.3333V22.6667H16.6667C17.0349 22.6667 17.3333 22.3682 17.3333 22V21.3333ZM18 0.666667H3.33333V1.33333H16.6667C17.0349 1.33333 17.3333 1.63181 17.3333 2V20.6667H18V0.666667ZM15.3333 2.66667H2V2H16.6667V22H16V3.33333C16 2.96514 15.7015 2.66667 15.3333 2.66667ZM15.3333 23.3333H0.666667V3.33333H15.3333V23.3333Z" fill="#4444CF"/>
</svg>
