<svg viewBox="0 0 15 24" fill="none" xmlns="http://www.w3.org/2000/svg">
<path d="M6.375 1.5C6.16788 1.5 6 1.66789 6 1.875C6 2.08211 6.16788 2.25 6.375 2.25H8.625C8.83212 2.25 9 2.08211 9 1.875C9 1.66789 8.83212 1.5 8.625 1.5H6.375Z" fill="#4444CF"/>
<path d="M8.25 21.75C8.25 22.1642 7.91421 22.5 7.5 22.5C7.08579 22.5 6.75 22.1642 6.75 21.75C6.75 21.3358 7.08579 21 7.5 21C7.91421 21 8.25 21.3358 8.25 21.75Z" fill="#4444CF"/>
<path fill-rule="evenodd" clip-rule="evenodd" d="M15 2.25C15 1.00736 13.9926 0 12.75 0H2.25C1.00735 0 0 1.00736 0 2.25V21.75C0 22.9926 1.00735 24 2.25 24H12.75C13.9926 24 15 22.9926 15 21.75V2.25ZM2.25 0.75H12.75C13.5784 0.75 14.25 1.42157 14.25 2.25V3H0.75V2.25C0.75 1.42157 1.42156 0.75 2.25 0.75ZM14.25 19.5V3.75H0.75V19.5H14.25ZM0.75 20.25V21.75C0.75 22.5784 1.42156 23.25 2.25 23.25H12.75C13.5784 23.25 14.25 22.5784 14.25 21.75V20.25H0.75Z" fill="#4444CF"/>
</svg>
