<svg viewBox="0 0 26 20" fill="none" xmlns="http://www.w3.org/2000/svg">
<path fill-rule="evenodd" clip-rule="evenodd" d="M15.8889 7.14286C15.8889 7.93183 15.2422 8.57143 14.4444 8.57143C13.6467 8.57143 13 7.93183 13 7.14286C13 6.35388 13.6467 5.71429 14.4444 5.71429C15.2422 5.71429 15.8889 6.35388 15.8889 7.14286ZM15.1667 7.14286C15.1667 7.53735 14.8433 7.85714 14.4444 7.85714C14.0456 7.85714 13.7222 7.53735 13.7222 7.14286C13.7222 6.74837 14.0456 6.42857 14.4444 6.42857C14.8433 6.42857 15.1667 6.74837 15.1667 7.14286Z" fill="#4444CF"/>
<path fill-rule="evenodd" clip-rule="evenodd" d="M2.88889 1.42857V0.714286C2.88889 0.319797 3.21224 0 3.61111 0H25.2778C25.6767 0 26 0.319797 26 0.714286V16.4286C26 16.8231 25.6767 17.1429 25.2778 17.1429H24.5556V17.8571C24.5556 18.2516 24.2322 18.5714 23.8333 18.5714H23.1111V19.2857C23.1111 19.6802 22.7878 20 22.3889 20H0.722222C0.32335 20 0 19.6802 0 19.2857V3.57143C0 3.17694 0.32335 2.85714 0.722222 2.85714H1.44444V2.14286C1.44444 1.74837 1.76779 1.42857 2.16667 1.42857H2.88889ZM3.61111 0.714286H25.2778V16.4286H24.5556V2.14286C24.5556 1.74837 24.2322 1.42857 23.8333 1.42857H3.61111V0.714286ZM23.1111 3.57143V17.8571H23.8333V2.14286H2.16667V2.85714H22.3889C22.7878 2.85714 23.1111 3.17694 23.1111 3.57143ZM0.722222 3.57143H22.3889V14.0554L18.7185 9.94142C17.9862 9.12054 16.6862 9.13869 15.9776 9.9797L13.5314 12.8829L8.65431 7.7837C7.67605 6.76091 6.03716 6.7384 5.03056 7.73393L0.722222 11.9949V3.57143ZM18.177 10.414L22.3889 15.135V19.2857H19.6555L14.0312 13.4054L16.5324 10.437C16.9576 9.93237 17.7376 9.92148 18.177 10.414ZM0.722222 13.0051L5.54124 8.23901C6.26024 7.52791 7.43088 7.54399 8.12964 8.27456L18.6613 19.2857H0.722222V13.0051Z" fill="#4444CF"/>
</svg>
