<svg viewBox="0 0 24 32" fill="none" xmlns="http://www.w3.org/2000/svg">
<path d="M12 0C5.38306 0 0 5.30274 0 11.8209C0 13.9668 0.976941 16.2747 1.01788 16.372C1.33341 17.1098 1.956 18.2557 2.40494 18.9274L10.6327 31.208C10.9694 31.7114 11.4678 32 12 32C12.5322 32 13.0306 31.7114 13.3673 31.2087L21.5958 18.9274C22.0454 18.2557 22.6673 17.1098 22.9828 16.372C23.0238 16.2754 24 13.9675 24 11.8209C24 5.30274 18.6169 0 12 0ZM21.6812 15.8324C21.3995 16.4937 20.82 17.5597 20.4169 18.1618L12.1885 30.4431C12.0261 30.6858 11.9746 30.6858 11.8122 30.4431L3.58376 18.1618C3.18071 17.5597 2.60118 16.493 2.31953 15.8317C2.30753 15.8032 1.41176 13.6789 1.41176 11.8209C1.41176 6.06971 6.16165 1.3907 12 1.3907C17.8384 1.3907 22.5882 6.06971 22.5882 11.8209C22.5882 13.6817 21.6904 15.8116 21.6812 15.8324Z" fill="#4444CF"/>
<path d="M11.9994 5.56348C8.49613 5.56348 5.64648 8.3713 5.64648 11.8216C5.64648 15.272 8.49613 18.0798 11.9994 18.0798C15.5027 18.0798 18.3524 15.272 18.3524 11.8216C18.3524 8.3713 15.5027 5.56348 11.9994 5.56348ZM11.9994 16.6891C9.27543 16.6891 7.05825 14.5057 7.05825 11.8216C7.05825 9.13757 9.27543 6.95418 11.9994 6.95418C14.7234 6.95418 16.9406 9.13757 16.9406 11.8216C16.9406 14.5057 14.7234 16.6891 11.9994 16.6891Z" fill="#4444CF"/>
</svg>
