<svg viewBox="0 0 56 56" fill="none" xmlns="http://www.w3.org/2000/svg">
<g filter="url(#filter0_d_221_18255)">
<circle cx="24" cy="24" r="18" fill="white"/>
</g>
<path d="M24 6C27.5601 6 31.0402 7.05567 34.0002 9.03353C36.9603 11.0114 39.2674 13.8226 40.6298 17.1117C41.9922 20.4008 42.3487 24.02 41.6541 27.5116C40.9596 31.0033 39.2453 34.2106 36.7279 36.7279C34.2106 39.2452 31.0033 40.9596 27.5116 41.6541C24.02 42.3487 20.4008 41.9922 17.1117 40.6298C13.8226 39.2674 11.0114 36.9604 9.03357 34.0003C7.0557 31.0402 6.00001 27.5601 6 24C6.01396 19.2304 7.91487 14.6601 11.2875 11.2875C14.6601 7.91487 19.2304 6.01396 24 6ZM24 11.4C22.932 11.4 21.8879 11.7167 20.9999 12.3101C20.1119 12.9034 19.4198 13.7468 19.0111 14.7335C18.6023 15.7202 18.4954 16.806 18.7037 17.8535C18.9121 18.901 19.4264 19.8632 20.1816 20.6184C20.9368 21.3736 21.899 21.8879 22.9465 22.0962C23.994 22.3046 25.0798 22.1977 26.0665 21.7889C27.0532 21.3802 27.8966 20.6881 28.4899 19.8001C29.0833 18.912 29.4 17.868 29.4 16.8C29.3952 15.3693 28.8248 13.9986 27.8131 12.9869C26.8014 11.9752 25.4307 11.4048 24 11.4ZM24 37.3961C26.1332 37.3864 28.2318 36.8564 30.1138 35.8521C31.9958 34.8477 33.6044 33.3994 34.8 31.6327C34.7134 28.0327 27.6 26.0509 24 26.0509C20.4 26.0509 13.2865 28.0327 13.2 31.6327C14.3969 33.398 16.0058 34.8453 17.8875 35.8495C19.7692 36.8537 21.8672 37.3845 24 37.3961Z" fill="#4444CF"/>
<defs>
<filter id="filter0_d_221_18255" x="0" y="0" width="56" height="56" filterUnits="userSpaceOnUse" color-interpolation-filters="sRGB">
<feFlood flood-opacity="0" result="BackgroundImageFix"/>
<feColorMatrix in="SourceAlpha" type="matrix" values="0 0 0 0 0 0 0 0 0 0 0 0 0 0 0 0 0 0 127 0" result="hardAlpha"/>
<feOffset dx="4" dy="4"/>
<feGaussianBlur stdDeviation="5"/>
<feColorMatrix type="matrix" values="0 0 0 0 0 0 0 0 0 0 0 0 0 0 0 0 0 0 0.25 0"/>
<feBlend mode="normal" in2="BackgroundImageFix" result="effect1_dropShadow_221_18255"/>
<feBlend mode="normal" in="SourceGraphic" in2="effect1_dropShadow_221_18255" result="shape"/>
</filter>
</defs>
</svg>
