<svg viewBox="0 0 40 32" fill="none" xmlns="http://www.w3.org/2000/svg">
<path fill-rule="evenodd" clip-rule="evenodd" d="M10.0007 12.1282C13.1449 12.1282 15.6673 9.62251 15.6673 6.5641C15.6673 3.50569 13.1449 1 10.0007 1C6.85636 1 4.33398 3.50569 4.33398 6.5641C4.33398 9.62251 6.85636 12.1282 10.0007 12.1282ZM16.6673 6.5641C16.6673 9.29364 14.9753 11.6341 12.5676 12.624C14.0567 13.0096 15.4144 13.7323 16.5501 14.7054C17.3117 13.6742 18.5727 13 19.9994 13C21.4501 13 22.7294 13.697 23.4866 14.7577C24.6277 13.7755 25.9907 13.0428 27.4861 12.6453C25.0506 11.668 23.334 9.31342 23.334 6.5641C23.334 2.93885 26.3188 0 30.0007 0C33.6825 0 36.6673 2.93885 36.6673 6.5641C36.6673 9.29364 34.9753 11.6341 32.5676 12.624C36.8195 13.7251 40 17.5744 40 22.1538V29C40 30.6569 38.6569 32 37 32H24.469H15.5297H3C1.34315 32 0 30.6569 0 29V22.3077C0 17.6791 3.19912 13.785 7.48615 12.6453C5.05064 11.668 3.33398 9.31342 3.33398 6.5641C3.33398 2.93885 6.31875 0 10.0007 0C13.6825 0 16.6673 2.93885 16.6673 6.5641ZM13.8885 31C13.7575 30.7465 13.6836 30.4588 13.6836 30.1538V26.3158C13.6836 23.6083 15.3873 21.2986 17.7812 20.4005C16.5852 19.6949 15.7889 18.4358 15.7889 17C15.7889 16.5075 15.8826 16.0358 16.0539 15.6001C14.4673 14.1764 12.3675 13.3077 10.0775 13.3077C5.09689 13.3077 1 17.3471 1 22.3077V29C1 30.1046 1.89543 31 3 31H13.8885ZM22.2176 20.4005C24.6115 21.2986 26.3152 23.6083 26.3152 26.3158V30.1538C26.3152 30.4588 26.2412 30.7465 26.1103 31H37C38.1046 31 39 30.1046 39 29V22.1538C39 17.2783 34.9732 13.3077 30.0775 13.3077C27.7345 13.3077 25.587 14.2016 23.9697 15.6649C24.1252 16.0824 24.2099 16.5318 24.2099 17C24.2099 18.4358 23.4136 19.695 22.2176 20.4005ZM35.6673 6.5641C35.6673 9.62251 33.1449 12.1282 30.0007 12.1282C26.8564 12.1282 24.334 9.62251 24.334 6.5641C24.334 3.50569 26.8564 1 30.0007 1C33.1449 1 35.6673 3.50569 35.6673 6.5641ZM19.9994 20C21.8215 20 23.2099 18.6091 23.2099 17C23.2099 15.3909 21.8215 14 19.9994 14C18.1773 14 16.7889 15.3909 16.7889 17C16.7889 18.6091 18.1773 20 19.9994 20ZM25.3152 26.3158V30.1538C25.3152 30.6212 24.9363 31 24.469 31H15.5297C15.0624 31 14.6836 30.6212 14.6836 30.1538V26.3158C14.6836 23.38 17.0636 21 19.9994 21C22.9352 21 25.3152 23.38 25.3152 26.3158Z" fill="#4444CF"/>
</svg>
