<svg viewBox="0 0 30 24" fill="none" xmlns="http://www.w3.org/2000/svg">
<path fill-rule="evenodd" clip-rule="evenodd" d="M4.5 12.75C5.74264 12.75 6.75 11.7426 6.75 10.5C6.75 9.25736 5.74264 8.25 4.5 8.25C3.25736 8.25 2.25 9.25736 2.25 10.5C2.25 11.7426 3.25736 12.75 4.5 12.75ZM4.5 12C5.32843 12 6 11.3284 6 10.5C6 9.67157 5.32843 9 4.5 9C3.67157 9 3 9.67157 3 10.5C3 11.3284 3.67157 12 4.5 12Z" fill="#4444CF"/>
<path d="M7.125 8.25C7.33211 8.25 7.5 8.08211 7.5 7.875C7.5 7.66789 7.33211 7.5 7.125 7.5C6.91789 7.5 6.75 7.66789 6.75 7.875C6.75 8.08211 6.91789 8.25 7.125 8.25Z" fill="#4444CF"/>
<path fill-rule="evenodd" clip-rule="evenodd" d="M7.5 6C8.32843 6 9 6.67157 9 7.5V13.5C9 14.3284 8.32843 15 7.5 15H1.5C0.671573 15 0 14.3284 0 13.5V7.5C0 6.67157 0.671574 6 1.5 6H7.5ZM8.25 13.5C8.25 13.9142 7.91421 14.25 7.5 14.25H1.5C1.08579 14.25 0.75 13.9142 0.75 13.5L0.750001 7.5C0.750001 7.08579 1.08579 6.75 1.5 6.75H7.5C7.91421 6.75 8.25 7.08579 8.25 7.5V13.5Z" fill="#4444CF"/>
<path d="M15 8.8125C15 8.29473 15.4197 7.875 15.9375 7.875H16.5V8.625H15.9375C15.8339 8.625 15.75 8.70895 15.75 8.8125V10.125H16.5V10.875H15.75V13.125H15V10.875H14.25V10.125H15V8.8125Z" fill="#4444CF"/>
<path fill-rule="evenodd" clip-rule="evenodd" d="M12 6C11.1716 6 10.5 6.67157 10.5 7.5V13.5C10.5 14.3284 11.1716 15 12 15H18C18.8284 15 19.5 14.3284 19.5 13.5V7.5C19.5 6.67157 18.8284 6 18 6H12ZM18 6.75H12C11.5858 6.75 11.25 7.08579 11.25 7.5V13.5C11.25 13.9142 11.5858 14.25 12 14.25H18C18.4142 14.25 18.75 13.9142 18.75 13.5V7.5C18.75 7.08579 18.4142 6.75 18 6.75Z" fill="#4444CF"/>
<path fill-rule="evenodd" clip-rule="evenodd" d="M27.375 11.1495C27.875 10.8608 27.875 10.1392 27.375 9.85048L24.4289 8.14952C23.9289 7.86084 23.3039 8.22169 23.3039 8.79904V12.201C23.3039 12.7783 23.9289 13.1392 24.4289 12.8505L27.375 11.1495ZM24.0539 12.201L27 10.5L24.0539 8.79904V12.201Z" fill="#4444CF"/>
<path fill-rule="evenodd" clip-rule="evenodd" d="M28.5 6C29.3284 6 30 6.67157 30 7.5V13.5C30 14.3284 29.3284 15 28.5 15H22.5C21.6716 15 21 14.3284 21 13.5V7.5C21 6.67157 21.6716 6 22.5 6H28.5ZM29.25 13.5C29.25 13.9142 28.9142 14.25 28.5 14.25H22.5C22.0858 14.25 21.75 13.9142 21.75 13.5V7.5C21.75 7.08579 22.0858 6.75 22.5 6.75H28.5C28.9142 6.75 29.25 7.08579 29.25 7.5V13.5Z" fill="#4444CF"/>
<path d="M13.875 1.5C13.6679 1.5 13.5 1.66789 13.5 1.875C13.5 2.08211 13.6679 2.25 13.875 2.25H16.125C16.3321 2.25 16.5 2.08211 16.5 1.875C16.5 1.66789 16.3321 1.5 16.125 1.5H13.875Z" fill="#4444CF"/>
<path fill-rule="evenodd" clip-rule="evenodd" d="M22.5 2.25C22.5 1.00736 21.4926 0 20.25 0H9.75C8.50736 0 7.5 1.00736 7.5 2.25L7.5 6C7.77322 6 8.02937 6.07305 8.25 6.20067V3.75H21.75V6.20067C21.9706 6.07305 22.2268 6 22.5 6V2.25ZM9.75 0.75H20.25C21.0784 0.75 21.75 1.42157 21.75 2.25V3H8.25V2.25C8.25 1.42157 8.92157 0.75 9.75 0.75Z" fill="#4444CF"/>
<path d="M15.75 21.75C15.75 22.1642 15.4142 22.5 15 22.5C14.5858 22.5 14.25 22.1642 14.25 21.75C14.25 21.3358 14.5858 21 15 21C15.4142 21 15.75 21.3358 15.75 21.75Z" fill="#4444CF"/>
<path fill-rule="evenodd" clip-rule="evenodd" d="M22.5 15C22.2268 15 21.9706 14.927 21.75 14.7993V19.5H8.25V14.7993C8.02937 14.927 7.77322 15 7.5 15V21.75C7.5 22.9926 8.50736 24 9.75 24H20.25C21.4926 24 22.5 22.9926 22.5 21.75V15ZM8.25 20.25V21.75C8.25 22.5784 8.92157 23.25 9.75 23.25H20.25C21.0784 23.25 21.75 22.5784 21.75 21.75V20.25H8.25Z" fill="#4444CF"/>
</svg>
