<svg viewBox="0 0 56 56" fill="none" xmlns="http://www.w3.org/2000/svg">
<path d="M28 0C33.5379 -1.43947e-06 38.9514 1.64215 43.5559 4.71883C48.1605 7.79551 51.7493 12.1685 53.8686 17.2849C55.9879 22.4012 56.5424 28.031 55.462 33.4625C54.3816 38.894 51.7149 43.8831 47.799 47.799C43.8831 51.7148 38.894 54.3816 33.4625 55.462C28.0311 56.5424 22.4012 55.9879 17.2849 53.8686C12.1686 51.7494 7.79556 48.1605 4.71888 43.556C1.6422 38.9514 1.14441e-05 33.5379 7.62939e-06 28C0.0217133 20.5806 2.97869 13.4713 8.22501 8.225C13.4713 2.97868 20.5806 0.0217181 28 0ZM28 8.39998C26.3386 8.39998 24.7146 8.89264 23.3332 9.81565C21.9518 10.7387 20.8752 12.0505 20.2394 13.5854C19.6036 15.1203 19.4373 16.8093 19.7614 18.4387C20.0855 20.0682 20.8855 21.5649 22.0603 22.7397C23.2351 23.9145 24.7318 24.7145 26.3612 25.0386C27.9907 25.3627 29.6796 25.1964 31.2145 24.5606C32.7494 23.9248 34.0613 22.8482 34.9843 21.4668C35.9073 20.0854 36.4 18.4613 36.4 16.8C36.3926 14.5745 35.5052 12.4422 33.9315 10.8685C32.3578 9.2948 30.2255 8.40741 28 8.39998ZM28 48.8384C31.3183 48.8233 34.5828 47.9988 37.5104 46.4365C40.438 44.8742 42.9402 42.6212 44.8 39.873C44.6653 34.273 33.6 31.1904 28 31.1904C22.4 31.1904 11.3346 34.273 11.2 39.873C13.0619 42.6192 15.5646 44.8705 18.4917 46.4326C21.4188 47.9946 24.6822 48.8204 28 48.8384Z" fill="#4444CF"/>
</svg>
