<svg viewBox="0 0 80 74" fill="none" xmlns="http://www.w3.org/2000/svg">
<path d="M39.999 51.3914C37.7624 51.3914 35.8877 53.2661 35.8877 55.5027C35.8877 57.7392 37.7624 59.614 39.999 59.614C42.1533 59.614 44.1103 57.7392 44.0116 55.6014C44.1103 53.2497 42.252 51.3914 39.999 51.3914Z" fill="#4444CF"/>
<path d="M78.0533 65.9618C80.6352 61.5052 80.6516 56.1934 78.0862 51.7532L52.3329 7.15368C49.7839 2.66413 45.1793 0 40.0155 0C34.8516 0 30.247 2.68057 27.698 7.13723L1.91184 51.7861C-0.65362 56.2756 -0.637174 61.6203 1.96117 66.077C4.52663 70.4843 9.11485 73.132 14.2458 73.132H65.6865C70.8338 73.132 75.4549 70.4514 78.0533 65.9618ZM72.4619 62.7386C71.0312 65.2054 68.4986 66.669 65.67 66.669H14.2293C11.4336 66.669 8.91751 65.2383 7.51966 62.8208C6.10537 60.3705 6.08893 57.4432 7.50322 54.9764L33.2894 10.3441C34.6872 7.89371 37.1869 6.44653 40.0155 6.44653C42.8276 6.44653 45.3437 7.91016 46.7416 10.3605L72.5112 54.9929C73.8926 57.3939 73.8762 60.2882 72.4619 62.7386Z" fill="#4444CF"/>
<path d="M38.9794 22.5302C37.0224 23.0893 35.8055 24.8654 35.8055 27.0197C35.9041 28.3189 35.9864 29.6345 36.085 30.9337C36.3646 35.8837 36.6442 40.7351 36.9237 45.6851C37.0224 47.3625 38.3216 48.5795 39.999 48.5795C41.6764 48.5795 42.992 47.2803 43.0743 45.5864C43.0743 44.5668 43.0743 43.6294 43.1729 42.5934C43.3538 39.4194 43.5512 36.2455 43.7321 33.0716C43.8307 31.0159 44.0116 28.9603 44.1103 26.9046C44.1103 26.1646 44.0116 25.5068 43.7321 24.849C42.8934 23.0071 40.9364 22.0697 38.9794 22.5302Z" fill="#4444CF"/>
</svg>
